<svg id="visual" viewBox="0 0 900 600" width="900" height="600" xmlns="http://www.w3.org/2000/svg" xmlns:xlink="http://www.w3.org/1999/xlink" version="1.1"><rect x="0" y="0" width="900" height="600" fill="#f7fc63"></rect><path d="M0 485L30 489C60 493 120 501 180 498.2C240 495.3 300 481.7 360 470.3C420 459 480 450 540 460C600 470 660 499 720 509C780 519 840 510 870 505.5L900 501L900 601L870 601C840 601 780 601 720 601C660 601 600 601 540 601C480 601 420 601 360 601C300 601 240 601 180 601C120 601 60 601 30 601L0 601Z" fill="#a0e4fd" stroke-linecap="round" stroke-linejoin="miter"></path></svg>